<svg version="1.1" id="Icon_Set" xmlns="http://www.w3.org/2000/svg" x="0" y="0" viewBox="0 0 256 256" style="enable-background:new 0 0 256 256" xml:space="preserve"><style>.st0{fill:#484771}.st6{fill:#504774}</style><circle cx="128" cy="128" r="103.873" style="fill:#f1c48b"/><path d="M192.166 223.42H63.834a5.209 5.209 0 0 1-5.209-5.209V186.82a5.209 5.209 0 0 1 5.209-5.209h128.333a5.209 5.209 0 0 1 5.209 5.209v31.391a5.21 5.21 0 0 1-5.21 5.209z" style="fill:#7babf3"/><path class="st6" d="M192.166 226.42H63.834c-4.526 0-8.209-3.683-8.209-8.209V186.82c0-4.526 3.683-8.209 8.209-8.209h128.332c4.526 0 8.209 3.683 8.209 8.209v31.391c0 4.527-3.683 8.209-8.209 8.209zM63.834 184.611a2.212 2.212 0 0 0-2.209 2.209v31.391c0 1.218.991 2.209 2.209 2.209h128.332a2.212 2.212 0 0 0 2.209-2.209V186.82a2.212 2.212 0 0 0-2.209-2.209H63.834z"/><path class="st0" d="m95.466 203.293-1.836-.792 1.828-.81c.702-.291 1.122-.875 1.122-1.562 0-.922-.75-1.672-1.671-1.672-.423 0-.779.137-1.177.447l-1.537 1.127.2-1.794c.072-.508-.059-.984-.37-1.343-.601-.694-1.83-.709-2.446.002a1.71 1.71 0 0 0-.384 1.358l.199 1.776-1.523-1.117c-.362-.281-.682-.456-1.153-.456-.925 0-1.707.766-1.707 1.672 0 .676.429 1.274 1.109 1.557l1.84.816-1.845.797c-.534.244-1.104.78-1.104 1.554 0 .925.766 1.706 1.672 1.706.467 0 .812-.204 1.175-.446l1.537-1.128-.199 1.795c-.072.508.058.984.369 1.342.303.35.74.543 1.229.543.48 0 .912-.193 1.217-.546a1.71 1.71 0 0 0 .384-1.358l-.2-1.775 1.555 1.14c.341.228.684.432 1.122.432.925 0 1.706-.766 1.706-1.672.002-.696-.427-1.307-1.112-1.593zM120.269 203.293l-1.835-.792 1.827-.81c.702-.291 1.122-.875 1.122-1.562 0-.922-.75-1.672-1.671-1.672-.423 0-.778.137-1.175.447L117 200.032l.199-1.795c.072-.507-.059-.984-.37-1.343-.599-.694-1.826-.71-2.445.001a1.715 1.715 0 0 0-.385 1.359l.2 1.776-1.523-1.117c-.362-.281-.682-.456-1.154-.456-.925 0-1.706.766-1.706 1.672 0 .675.429 1.274 1.109 1.557l1.839.816-1.846.797c-.532.243-1.102.779-1.102 1.554 0 .925.766 1.706 1.672 1.706.467 0 .812-.204 1.176-.446l1.536-1.127-.199 1.795c-.072.508.06.985.371 1.343.303.35.739.542 1.227.542.48 0 .912-.193 1.217-.546.315-.364.455-.865.384-1.357l-.2-1.776 1.556 1.141c.341.228.684.432 1.121.432.925 0 1.706-.766 1.706-1.672 0-.698-.429-1.309-1.114-1.595zM145.072 203.293l-1.835-.792 1.827-.81c.702-.291 1.122-.875 1.122-1.562 0-.922-.75-1.672-1.671-1.672-.424 0-.78.137-1.176.447l-1.538 1.127.2-1.794c.072-.508-.059-.984-.37-1.343-.6-.694-1.83-.709-2.446.002a1.71 1.71 0 0 0-.384 1.358l.199 1.776-1.522-1.116c-.361-.282-.681-.457-1.154-.457-.925 0-1.707.766-1.707 1.672 0 .676.429 1.274 1.109 1.557l1.84.816-1.846.797c-.533.244-1.103.78-1.103 1.554 0 .925.766 1.706 1.672 1.706.468 0 .814-.204 1.175-.446l1.537-1.128-.199 1.795c-.072.508.058.984.369 1.342.303.35.74.543 1.229.543.48 0 .912-.193 1.217-.546a1.71 1.71 0 0 0 .384-1.358l-.2-1.776 1.555 1.14c.341.228.683.433 1.122.433.925 0 1.706-.766 1.706-1.672.002-.696-.427-1.307-1.112-1.593zM169.873 203.293l-1.835-.792 1.827-.81c.702-.291 1.122-.875 1.122-1.561 0-.922-.75-1.672-1.671-1.672-.423 0-.778.137-1.176.447l-1.537 1.128.199-1.795c.072-.508-.059-.985-.37-1.343-.6-.694-1.828-.707-2.445.002a1.715 1.715 0 0 0-.385 1.359l.2 1.776-1.523-1.117c-.362-.281-.682-.456-1.154-.456-.925 0-1.706.766-1.706 1.672 0 .675.429 1.273 1.109 1.556l1.839.816-1.844.796c-.509.232-1.103.778-1.103 1.555 0 .925.766 1.706 1.672 1.706.468 0 .813-.204 1.175-.446l1.536-1.127-.199 1.795c-.072.508.06.984.371 1.342.303.35.74.542 1.228.542.48 0 .911-.193 1.216-.545a1.71 1.71 0 0 0 .384-1.358l-.2-1.776 1.555 1.14c.341.228.684.433 1.123.433.924 0 1.705-.766 1.705-1.672.001-.699-.428-1.31-1.113-1.595z"/><path d="M161.127 84.841H94.873c-5.92 0-10.719 4.799-10.719 10.719v62.641c0 5.92 4.799 10.719 10.719 10.719h66.254c5.92 0 10.719-4.799 10.719-10.719V95.56c0-5.92-4.799-10.719-10.719-10.719z" style="fill:#fd919f"/><path d="M161.127 84.841h-18.769c5.92 0 10.719 4.799 10.719 10.719v62.642c0 5.92-4.799 10.719-10.719 10.719h18.769c5.92 0 10.719-4.799 10.719-10.719V95.56c0-5.92-4.799-10.719-10.719-10.719z" style="fill:#e0667d"/><path d="M152.201 143.889 128 157.861l-24.201-13.972V98.123a51.891 51.891 0 0 0 48.401 0v45.766z" style="fill:#d5e6f7"/><path class="st6" d="m135.928 139.432-3.289-10.652a8.162 8.162 0 0 0 3.525-7.176c-.222-4.156-3.676-7.559-7.835-7.722a8.177 8.177 0 0 0-8.505 8.17 8.165 8.165 0 0 0 3.537 6.729l-3.289 10.652a1.826 1.826 0 0 0 1.745 2.365h12.367a1.827 1.827 0 0 0 1.744-2.366z"/><path class="st6" d="M161.127 171.92H94.873c-7.564 0-13.719-6.154-13.719-13.719V95.56c0-7.565 6.154-13.719 13.719-13.719h66.254c7.564 0 13.719 6.154 13.719 13.719v62.641c0 7.565-6.155 13.719-13.719 13.719zM94.873 87.841c-4.256 0-7.719 3.463-7.719 7.719v62.641c0 4.256 3.463 7.719 7.719 7.719h66.254c4.256 0 7.719-3.463 7.719-7.719V95.56c0-4.256-3.463-7.719-7.719-7.719H94.873z"/><path class="st6" d="M153.077 87.841a3 3 0 0 1-3-3V57.657c0-12.173-9.903-22.077-22.077-22.077s-22.077 9.904-22.077 22.077v27.184a3 3 0 1 1-6 0V57.657c0-15.482 12.596-28.077 28.077-28.077s28.077 12.595 28.077 28.077v27.184a3 3 0 0 1-3 3zM128 160.861a2.997 2.997 0 0 1-1.5-.402l-24.2-13.972a3 3 0 0 1-1.5-2.598V98.124a3 3 0 0 1 4.399-2.654c7.001 3.691 14.886 5.643 22.801 5.643s15.8-1.951 22.801-5.643a3.001 3.001 0 0 1 4.399 2.654v45.766a3 3 0 0 1-1.5 2.598l-24.2 13.972a2.996 2.996 0 0 1-1.5.401zm-21.2-18.704 21.2 12.24 21.2-12.24V102.85c-6.695 2.798-13.937 4.262-21.2 4.262s-14.505-1.463-21.2-4.262v39.307z"/></svg>